<!-- Generated by IcoMoon.io -->
<svg version="1.1" xmlns="http://www.w3.org/2000/svg" width="1024" height="1024" viewBox="0 0 1024 1024">
<title></title>
<g id="icomoon-ignore">
</g>
<path d="M528 80q87.5 0 167.5 34.25t138 92.25 92.25 138 34.25 167.5-34.25 167.5-92.25 138-138 92.25-167.5 34.25-167.5-34.25-138-92.25-92.25-138-34.25-167.5 34.25-167.5 92.25-138 138-92.25 167.5-34.25zM528 867.5q96.5 0 178.25-47.75t129.5-129.5 47.75-178.25-47.75-178.25-129.5-129.5-178.25-47.75-178.25 47.75-129.5 129.5-47.75 178.25 47.75 178.25 129.5 129.5 178.25 47.75zM785 533.5q10.5 45.5-16.5 85.75t-75.5 51.75l-16-67-50.5 12-20-84.5 50.5-12-16-67q48.5-11.5 90.75 12.25t53.25 68.75zM688 328q0 23-16.5 39.5t-39.5 16.5-39.5-16.5-16.5-39.5 16.5-39.5 39.5-16.5 39.5 16.5 16.5 39.5zM456 640q23 0 39.5 16.5t16.5 39.5-16.5 39.5-39.5 16.5-39.5-16.5-16.5-39.5 16.5-39.5 39.5-16.5zM496 448q0 46-33 79t-79 33-79-33-33-79 33-79 79-33 79 33 33 79zM384 498.5q21 0 35.75-14.75t14.75-35.75-14.75-35.75-35.75-14.75-35.75 14.75-14.75 35.75 14.75 35.75 35.75 14.75z"></path>
</svg>
